<svg width="16" height="18" viewBox="0 0 16 18" fill="none" xmlns="http://www.w3.org/2000/svg">
<path d="M8.00016 0.359985C6.0075 0.359985 4.40016 1.96733 4.40016 3.95999V4.67999H1.55391L1.52016 4.99499L0.0801563 17.595L0.0351562 18H15.9652L15.9202 17.595L14.4802 4.99499L14.4464 4.67999H11.6002V3.95999C11.6002 1.96733 9.99281 0.359985 8.00016 0.359985ZM8.00016 1.07999C9.6075 1.07999 10.8802 2.35264 10.8802 3.95999V4.67999H5.12016V3.95999C5.12016 2.35264 6.39281 1.07999 8.00016 1.07999ZM2.20641 5.39999H4.40016V6.22124C4.185 6.34639 4.04016 6.5742 4.04016 6.83998C4.04016 7.23795 4.36219 7.55999 4.76016 7.55999C5.15813 7.55999 5.48016 7.23795 5.48016 6.83998C5.48016 6.5742 5.33531 6.34639 5.12016 6.22124V5.39999H10.8802V6.22124C10.665 6.34639 10.5202 6.5742 10.5202 6.83998C10.5202 7.23795 10.8422 7.55999 11.2402 7.55999C11.6381 7.55999 11.9602 7.23795 11.9602 6.83998C11.9602 6.5742 11.8153 6.34639 11.6002 6.22124V5.39999H13.7939L15.1552 17.28H0.845156L2.20641 5.39999Z" fill="#6D6D6D"/>
</svg>
