<svg width="66" height="33" viewBox="0 0 66 33" fill="none" xmlns="http://www.w3.org/2000/svg">
<g clip-path="url(#clip0_830_307)">
<path d="M16.1274 32.595C15.7702 32.6042 15.4148 32.5412 15.083 32.41C14.7512 32.2787 14.4499 32.0819 14.1977 31.8315C13.685 31.3216 13.4287 30.5611 13.4287 29.5412C13.4283 28.7413 13.5875 27.9491 13.8972 27.2101C14.2014 26.4708 14.6198 25.7827 15.1375 25.1703C15.6197 24.5955 16.1988 24.1076 16.8492 23.728C17.4088 23.3893 18.0494 23.2042 18.7053 23.1918C19.3652 23.1918 19.816 23.3841 20.0576 23.7746C20.2891 24.1312 20.4137 24.5455 20.417 24.9693C20.4255 25.3963 20.3132 25.8171 20.0929 26.1844C20.0083 26.3435 19.8811 26.4765 19.7252 26.569C19.5694 26.6615 19.3908 26.7099 19.2091 26.7089C19.0723 26.7081 18.9377 26.6752 18.8163 26.6129C18.6949 26.5506 18.5902 26.4607 18.5108 26.3505C18.8001 26.167 19.0206 25.8947 19.1384 25.5754C19.3053 25.2291 19.3957 24.8516 19.4035 24.4681C19.412 24.3131 19.3741 24.159 19.2945 24.0252C19.2419 23.968 19.1762 23.9242 19.1029 23.8973C19.0296 23.8704 18.9508 23.8613 18.8732 23.8707C18.3712 23.9001 17.8965 24.107 17.5357 24.4535C17.0369 24.8798 16.6059 25.3778 16.257 25.9309C15.865 26.5286 15.5419 27.1678 15.2936 27.8366C15.0566 28.438 14.9299 29.0764 14.9195 29.7219C14.9154 30.1984 15.0405 30.6673 15.2819 31.0798C15.5205 31.4935 15.9889 31.7004 16.6783 31.7004C17.3598 31.6902 18.0277 31.5097 18.6199 31.1759C19.3143 30.7899 19.9306 30.2801 20.4376 29.6723C21.018 28.9924 21.4754 28.2186 21.7899 27.3849L22.1022 27.6239C21.7446 28.5554 21.2318 29.4212 20.585 30.1852C19.9909 30.8982 19.2724 31.5002 18.4637 31.9627C17.7534 32.37 16.9484 32.5879 16.1274 32.595Z" fill="#A260A3"/>
<path d="M22.9983 32.0209C22.305 32.0209 21.814 31.8111 21.5253 31.3915C21.2241 30.9349 21.0719 30.3978 21.0892 29.8529C21.0941 29.3351 21.1755 28.8207 21.3308 28.3261C21.4879 27.8117 21.7024 27.3162 21.9701 26.8487C22.2006 26.4294 22.4992 26.0503 22.854 25.7268C23.1217 25.4666 23.4776 25.3139 23.8527 25.2985C23.9384 25.2991 24.0236 25.3108 24.1061 25.3335C24.1945 25.3597 24.2799 25.3859 24.3595 25.418C24.1535 25.6263 23.9789 25.8628 23.8409 26.1202C23.6247 26.495 23.4357 26.8845 23.2753 27.2858C23.102 27.7102 22.9535 28.1441 22.8304 28.5854C22.7207 28.942 22.6592 29.3114 22.6477 29.6839C22.6179 30.0452 22.7023 30.4067 22.8893 30.7184C22.9586 30.8195 23.0523 30.902 23.1618 30.9584C23.2713 31.0149 23.3933 31.0435 23.5169 31.0418C23.9663 30.9957 24.3888 30.8077 24.7218 30.5056C25.2319 30.1025 25.6926 29.6419 26.0947 29.1332C25.6267 28.7427 25.2659 28.2415 25.0459 27.6762C24.8019 27.0983 24.6757 26.4784 24.6747 25.8521C24.6706 25.3467 24.7646 24.8452 24.9516 24.3748C25.1155 23.9408 25.3943 23.5584 25.7589 23.2675C26.1218 22.9854 26.5732 22.8379 27.0346 22.8508C27.6945 22.8508 28.1364 23.0256 28.3604 23.3753C28.6064 23.7726 28.7293 24.2326 28.7139 24.6982C28.6942 25.4076 28.5383 26.1067 28.2543 26.7584C27.9454 27.5229 27.5585 28.2541 27.0994 28.9409C27.379 29.0971 27.6945 29.1794 28.0157 29.1798C28.3107 29.1727 28.6028 29.1206 28.8818 29.0254C29.2303 28.9062 29.5531 28.7233 29.8334 28.4863C30.1657 28.2103 30.4263 27.8596 30.5936 27.4635L30.8882 27.6996C30.635 28.3694 30.1537 28.931 29.527 29.2876C29.0154 29.5763 28.4395 29.7354 27.8507 29.7509C27.6528 29.7504 27.4555 29.7309 27.2614 29.6927C27.0704 29.6536 26.8846 29.593 26.7076 29.512C26.198 30.1902 25.5928 30.7927 24.9104 31.3011C24.3702 31.7421 23.6983 31.9951 22.9983 32.0209ZM26.5337 28.5242C26.9315 27.9444 27.2672 27.3253 27.5354 26.6768C27.7862 26.0999 27.9212 25.4804 27.9332 24.8527C27.9587 24.5024 27.8874 24.1519 27.7269 23.8386C27.6791 23.7433 27.6057 23.6627 27.5148 23.6057C27.4239 23.5487 27.319 23.5174 27.2113 23.5152C26.8873 23.5152 26.5603 23.7483 26.2214 24.2087C25.8683 24.7231 25.6907 25.3357 25.7147 25.957C25.7158 26.4296 25.7852 26.8997 25.9209 27.3528C26.0417 27.7801 26.2525 28.1774 26.5396 28.5184L26.5337 28.5242Z" fill="#A260A3"/>
<path d="M32.1328 31.9831C31.4395 31.9831 30.9485 31.749 30.6597 31.2808C30.3475 30.7513 30.1933 30.1451 30.2149 29.5325C30.239 28.6124 30.3846 27.6994 30.648 26.8167C30.9641 25.6901 31.3467 24.5829 31.794 23.5007C32.2674 22.3351 32.7859 21.2026 33.3496 20.1031C33.9133 19.0036 34.475 17.9983 35.0348 17.0872C35.4937 16.3244 36.0139 15.5994 36.5904 14.9192C37.0647 14.3772 37.4389 14.1092 37.7129 14.1092C37.8054 14.1128 37.895 14.142 37.9716 14.1936C38.0481 14.2451 38.1086 14.3168 38.146 14.4006C38.2677 14.6251 38.3569 14.8654 38.4111 15.1145C38.4717 15.3607 38.5043 15.6129 38.5083 15.8662C38.4818 16.4393 38.3717 17.0056 38.1813 17.5476C37.9255 18.3371 37.6195 19.1099 37.2651 19.8612C36.8512 20.7453 36.3849 21.6045 35.8686 22.4342C35.3299 23.2986 34.7396 24.1306 34.1009 24.9256C33.5064 25.6753 32.8318 26.3591 32.0886 26.9653C31.9914 27.3937 31.9178 27.8104 31.8588 28.2154C31.8045 28.6016 31.777 28.991 31.7763 29.381C31.7461 29.857 31.8373 30.3329 32.0415 30.7651C32.1178 30.9067 32.2329 31.0241 32.3736 31.104C32.5143 31.1839 32.6749 31.223 32.837 31.2167C33.3262 31.1912 33.7875 30.9829 34.1274 30.6339C34.5899 30.2062 34.9948 29.7214 35.3324 29.1916C35.7056 28.618 36.0317 28.0158 36.3076 27.3907L36.6699 27.5831C36.1442 28.7533 35.4364 29.8348 34.5723 30.7884C33.8082 31.5848 32.9951 31.9831 32.1328 31.9831ZM32.3008 26.1553C32.8968 25.5586 33.4446 24.9166 33.9388 24.235C34.4681 23.5094 34.9598 22.7576 35.4119 21.9825C35.8715 21.2045 36.2781 20.4469 36.6316 19.7184C36.9444 19.0797 37.2179 18.4229 37.4507 17.7515C37.6146 17.3184 37.7139 16.8639 37.7453 16.4024C37.7575 16.2956 37.7359 16.1877 37.6834 16.0935C37.6451 16.0469 37.6098 16.0207 37.5774 16.0207C37.4477 16.0207 37.2268 16.2247 36.9145 16.6297C36.5192 17.154 36.1524 17.6987 35.8155 18.2615C35.4011 18.9453 34.9759 19.7223 34.5399 20.5926C34.1038 21.4629 33.6894 22.3769 33.2966 23.3346C32.9168 24.2576 32.5844 25.199 32.3008 26.1553Z" fill="#A260A3"/>
<path d="M37.5533 31.8782C37.2905 31.8975 37.0268 31.8548 36.784 31.7534C36.5411 31.6521 36.3262 31.4951 36.1568 31.2954C35.8446 30.888 35.6825 30.3873 35.6972 29.8763C35.7128 29.4087 35.782 28.9444 35.9034 28.4922C36.0519 27.9001 36.2329 27.3165 36.4455 26.7439C36.662 26.149 36.924 25.5714 37.2292 25.0159C37.4847 24.5345 37.8048 24.0895 38.1808 23.693C38.3029 23.5465 38.4533 23.4256 38.6233 23.3376C38.7934 23.2495 38.9795 23.196 39.1707 23.1802C39.3066 23.1771 39.4388 23.2238 39.542 23.3113C39.5969 23.3606 39.6398 23.4217 39.6674 23.4898C39.6949 23.558 39.7064 23.6314 39.701 23.7047C39.6469 24.0379 39.5192 24.3553 39.3269 24.6342C39.0765 25.0625 38.7848 25.555 38.443 26.1115C38.1025 26.6705 37.8069 27.2551 37.5592 27.8599C37.3216 28.4134 37.1946 29.007 37.185 29.6082C37.185 30.191 37.2822 30.5611 37.4796 30.7534C37.6004 30.857 37.7406 30.9361 37.8923 30.9861C38.0439 31.0361 38.204 31.056 38.3635 31.0448C38.9095 31.0448 39.4919 30.7748 40.1106 30.2347C40.7293 29.6947 41.3843 28.7486 42.0756 27.3966L42.2907 27.6355C41.9252 28.8475 41.229 29.9364 40.2785 30.7825C39.5334 31.4609 38.5656 31.85 37.5533 31.8782ZM40.4464 20.9598C40.204 20.9632 39.9656 20.8975 39.76 20.7704C39.664 20.7068 39.5863 20.6197 39.5347 20.5175C39.483 20.4154 39.4591 20.3016 39.4653 20.1876C39.4772 20.0035 39.5379 19.8258 39.6413 19.6723C39.7448 19.5188 39.8873 19.395 40.0546 19.3134C40.4034 19.0809 40.8125 18.9524 41.233 18.9433C41.4431 18.9322 41.6508 18.9918 41.8223 19.1123C41.9022 19.1857 41.9633 19.2768 42.0007 19.3781C42.0381 19.4794 42.0506 19.5881 42.0373 19.6951C42.0257 19.8681 41.9753 20.0363 41.8897 20.1875C41.8041 20.3387 41.6854 20.4691 41.5424 20.5693C41.2394 20.8286 40.85 20.9678 40.4494 20.9598H40.4464Z" fill="#A260A3"/>
<path d="M43.8724 33C43.0357 33 42.4131 32.73 42.0045 32.19C41.5636 31.5442 41.3474 30.7739 41.3888 29.9958C41.4115 29.0447 41.549 28.0998 41.7983 27.181C42.0952 26.0299 42.4582 24.8965 42.8854 23.7863C43.3332 22.5993 43.8351 21.4425 44.3909 20.3158C44.9468 19.1891 45.5056 18.1683 46.0673 17.2533C46.5284 16.4752 47.061 15.7407 47.6582 15.0591C48.1571 14.5113 48.5666 14.2374 48.8868 14.2374C49.1608 14.2374 49.3552 14.4035 49.476 14.7386C49.5949 15.0588 49.6568 15.397 49.6587 15.7381C49.6381 16.2901 49.5389 16.8365 49.3641 17.3611C49.1441 18.0611 48.8693 18.7431 48.5421 19.4008C48.1804 20.1377 47.77 20.8503 47.3135 21.5338C46.8638 22.2123 46.3604 22.8544 45.808 23.4541C45.3266 23.9869 44.7699 24.4482 44.1552 24.8236C43.9908 25.1764 43.8501 25.5394 43.7339 25.9105C43.5298 26.5282 43.3606 27.1566 43.2272 27.7929C43.0783 28.4707 43.0022 29.1623 43.0003 29.8559C42.979 30.4069 43.0796 30.9559 43.295 31.4644C43.3787 31.6618 43.5223 31.8286 43.7059 31.9418C43.8896 32.0551 44.1042 32.1092 44.3202 32.0967C44.8514 32.0722 45.3597 31.8756 45.7668 31.5373C46.273 31.1521 46.6848 30.6591 46.9718 30.0949C46.3946 29.8103 45.9286 29.3453 45.646 28.772C45.3652 28.2306 45.2159 27.632 45.21 27.0236C45.1761 26.359 45.3911 25.7054 45.8139 25.1879C45.9833 24.9743 46.1992 24.8012 46.4456 24.6817C46.692 24.5621 46.9625 24.499 47.2369 24.4973C47.4541 24.4915 47.6694 24.5396 47.8629 24.6374C48.0564 24.7351 48.2221 24.8793 48.3447 25.0567C48.6499 25.5462 48.7931 26.1177 48.7542 26.6914C48.7525 27.2254 48.6882 27.7573 48.5627 28.2766C48.4315 28.8265 48.2337 29.3588 47.9735 29.8618C48.053 29.8763 48.1384 29.888 48.2268 29.8967C48.5807 29.9302 48.9378 29.8914 49.2758 29.7826C49.6139 29.6738 49.9257 29.4974 50.1919 29.2644C50.7185 28.7994 51.1591 28.2472 51.4941 27.6326C51.8624 26.9772 52.1805 26.2954 52.4457 25.5929C52.7109 24.8877 52.9378 24.2612 53.1322 23.7222C53.0682 23.6442 53.0119 23.5603 52.9643 23.4716C52.9086 23.3563 52.8832 23.229 52.8906 23.1015C52.886 22.7009 53.0272 22.3121 53.2883 22.0059C53.5535 21.6883 53.7745 21.528 53.9512 21.528C54.0809 21.528 54.1604 21.6096 54.1928 21.7669C54.2165 21.8685 54.2323 21.9718 54.24 22.0758C54.2326 22.2466 54.1873 22.4138 54.1074 22.5653C54.0296 22.7094 53.9843 22.8685 53.9748 23.0316C53.9881 23.1459 54.0291 23.2553 54.0942 23.3507C54.1593 23.446 54.2467 23.5245 54.349 23.5794L55.2063 24.1855C55.5346 24.4263 55.8229 24.7163 56.0607 25.0451C56.321 25.4196 56.4522 25.8672 56.4349 26.3214C56.4325 26.8165 56.3324 27.3065 56.1402 27.7637C55.937 28.2475 55.7366 28.7137 55.551 29.1566C55.3708 29.5295 55.2705 29.9353 55.2564 30.3484C55.2429 30.4506 55.2555 30.5546 55.2931 30.6508C55.3307 30.747 55.392 30.8324 55.4715 30.8991C55.6225 30.9949 55.7988 31.0446 55.9782 31.0419C56.3962 31.028 56.8029 30.9043 57.1567 30.6835C57.5836 30.4275 57.9791 30.1234 58.3351 29.7773C58.7131 29.418 59.06 29.0282 59.3722 28.6117C59.6443 28.2644 59.8709 27.8845 60.0468 27.4811L60.3621 27.7171C60.0323 28.4241 59.6104 29.0854 59.107 29.684C58.6066 30.3027 58.01 30.8388 57.3393 31.2721C56.7433 31.6665 56.0442 31.8811 55.3271 31.8898C54.8591 31.9177 54.3979 31.7687 54.0367 31.4732C53.8752 31.3259 53.7491 31.1448 53.6675 30.9432C53.586 30.7415 53.551 30.5243 53.5653 30.3076C53.5762 29.8041 53.6916 29.3082 53.9041 28.8506C54.128 28.3358 54.349 27.8152 54.567 27.2888C54.7668 26.8369 54.8769 26.3511 54.8911 25.8581C54.9069 25.6522 54.8751 25.4455 54.798 25.2536C54.7209 25.0617 54.6006 24.8897 54.4462 24.7508C54.1564 24.5096 53.8546 24.283 53.5417 24.0718C53.3453 24.674 53.1165 25.3413 52.8553 26.0737C52.5933 26.7988 52.2619 27.4974 51.8654 28.16C51.498 28.7896 51.012 29.3435 50.4335 29.7918C49.8515 30.2282 49.1366 30.4553 48.4066 30.4358C48.2942 30.4353 48.182 30.4275 48.0707 30.4125L47.7083 30.3659C47.2904 31.0785 46.7477 31.7119 46.1056 32.2366C45.4769 32.746 44.685 33.0168 43.8724 33ZM44.4263 23.8912C44.9181 23.5015 45.3594 23.0532 45.7403 22.5566C46.1748 22.0064 46.5734 21.4292 46.9335 20.8287C47.3047 20.2167 47.6317 19.6165 47.9234 19.0279C48.1827 18.5105 48.4081 17.9771 48.598 17.431C48.73 17.0869 48.8114 16.7258 48.8396 16.3587C48.8452 16.3058 48.836 16.2524 48.8131 16.2043C48.8063 16.1919 48.796 16.1817 48.7835 16.175C48.7709 16.1682 48.7566 16.1653 48.7424 16.1664C48.6128 16.1664 48.3682 16.3937 48.0059 16.8483C47.5626 17.4233 47.16 18.0279 46.8009 18.6578C46.359 19.4154 45.921 20.2507 45.4869 21.1637C45.0655 22.0456 44.711 22.9573 44.4263 23.8912ZM47.2222 29.6141C47.4022 29.2419 47.5395 28.8509 47.6317 28.4485C47.73 28.0389 47.7794 27.6194 47.779 27.1984C47.7994 26.7501 47.721 26.3026 47.5492 25.8872C47.396 25.5696 47.2075 25.4093 46.9836 25.4093C46.7596 25.4093 46.5269 25.5725 46.3442 25.8988C46.1467 26.2774 46.0513 26.6999 46.0673 27.1256C46.074 27.5901 46.1638 28.0499 46.3324 28.4835C46.4936 28.9478 46.8067 29.3456 47.2222 29.6141Z" fill="#A260A3"/>
<path d="M61.2525 31.8781C60.9896 31.898 60.7258 31.8554 60.4829 31.7541C60.24 31.6527 60.0251 31.4954 59.856 31.2954C59.5439 30.8879 59.3817 30.3873 59.3964 29.8763C59.4105 29.4085 59.4797 28.944 59.6027 28.4922C59.7498 27.8997 59.9308 27.316 60.1447 26.7438C60.3612 26.149 60.6232 25.5713 60.9284 25.0159C61.1829 24.5339 61.5031 24.0887 61.88 23.693C62.0014 23.5464 62.1513 23.4255 62.3209 23.3374C62.4904 23.2493 62.6761 23.1958 62.867 23.1801C63.0037 23.1772 63.1368 23.2238 63.2412 23.3112C63.2958 23.3607 63.3382 23.4219 63.3653 23.4901C63.3923 23.5582 63.4033 23.6316 63.3973 23.7046C63.3446 24.0378 63.2179 24.3553 63.0261 24.6342C62.7747 25.0635 62.4801 25.5559 62.1423 26.1115C61.8017 26.6705 61.5062 27.2551 61.2584 27.8599C61.0222 28.4137 60.8952 29.0072 60.8842 29.6082C60.8842 30.1793 60.9824 30.561 61.1789 30.7534C61.2995 30.8571 61.4397 30.9363 61.5914 30.9863C61.7431 31.0363 61.9032 31.0561 62.0627 31.0448C62.6107 31.0448 63.1911 30.7738 63.8127 30.2347C64.4344 29.6956 65.0855 28.7486 65.7749 27.3965L65.9929 27.6355C65.6274 28.8475 64.9311 29.9364 63.9807 30.7825C63.2345 31.461 62.2657 31.8501 61.2525 31.8781ZM64.1456 20.9597C63.9032 20.9632 63.6648 20.8974 63.4592 20.7703C63.3632 20.7068 63.2856 20.6197 63.2339 20.5175C63.1823 20.4153 63.1584 20.3016 63.1646 20.1875C63.1758 20.0033 63.2363 19.8253 63.3398 19.6717C63.4433 19.5182 63.5862 19.3945 63.7538 19.3134C64.1027 19.0809 64.5117 18.9524 64.9323 18.9433C65.1425 18.931 65.3506 18.9907 65.5215 19.1123C65.6017 19.1856 65.6633 19.2765 65.7012 19.3778C65.7391 19.4791 65.7522 19.5878 65.7395 19.6951C65.7279 19.868 65.6775 20.0362 65.5918 20.1875C65.5062 20.3387 65.3876 20.4691 65.2446 20.5693C64.9398 20.8295 64.5482 20.9686 64.1456 20.9597Z" fill="#A260A3"/>
<path d="M13.3668 13.8938H3.39103L0.798408 19.7217H0L8.75011 -0.011322H9.85787L18.5815 19.7421H15.9299L13.3668 13.8938ZM13.0986 13.3315L8.38478 2.5908L3.61789 13.3315H13.0986Z" fill="#A260A3"/>
<path d="M38.7028 19.7446H35.7979C35.1906 19.3143 34.6874 18.756 34.3248 18.1099L31.302 12.8649C30.8927 12.1805 30.288 11.631 29.5638 11.2856H24.7115V19.7359H22.1719V0H30.0116C34.1363 0 37.2503 2.39523 37.2503 5.60927C37.2503 8.54066 34.7697 10.7698 31.2667 11.1923C32.6337 11.5857 33.7444 12.2909 34.316 13.2787L36.8791 17.5913C37.3335 18.4237 37.9539 19.1562 38.7028 19.7446ZM24.7115 10.7115H29.5255C32.5777 10.7115 34.5988 8.70967 34.5988 5.63841C34.5988 2.56715 32.5777 0.565299 29.5255 0.565299H24.7115V10.7115Z" fill="#A260A3"/>
<path d="M55.0074 0.565299H48.3107V19.7446H45.7741V0.565299H39.0244V0H55.0133L55.0074 0.565299Z" fill="#A260A3"/>
<path d="M15.5385 32.0121C15.1813 32.0213 14.8259 31.9584 14.4941 31.8271C14.1623 31.6958 13.8611 31.499 13.6088 31.2487C13.0962 30.7388 12.8398 29.9782 12.8398 28.9584C12.8395 28.1584 12.9986 27.3662 13.3083 26.6272C13.6125 25.8879 14.0309 25.1998 14.5486 24.5875C15.0309 24.0127 15.61 23.5247 16.2603 23.1451C16.8199 22.8065 17.4606 22.6214 18.1164 22.6089C18.7764 22.6089 19.2271 22.8013 19.4687 23.1917C19.7002 23.5484 19.8248 23.9626 19.8281 24.3864C19.8366 24.8134 19.7244 25.2342 19.5041 25.6015C19.4194 25.7606 19.2922 25.8936 19.1364 25.9861C18.9805 26.0786 18.802 26.127 18.6202 26.126C18.4834 26.1253 18.3488 26.0924 18.2274 26.0301C18.106 25.9678 18.0013 25.8778 17.922 25.7676C18.2113 25.5841 18.4317 25.3119 18.5495 24.9925C18.7165 24.6463 18.8069 24.2688 18.8147 23.8852C18.8231 23.7302 18.7852 23.5762 18.7057 23.4423C18.653 23.3852 18.5873 23.3413 18.514 23.3144C18.4407 23.2876 18.362 23.2785 18.2844 23.2879C17.7823 23.3173 17.3076 23.5241 16.9468 23.8707C16.4481 24.2969 16.017 24.7949 15.6682 25.348C15.2762 25.9457 14.953 26.5849 14.7048 27.2537C14.4677 27.8551 14.341 28.4936 14.3306 29.139C14.3265 29.6155 14.4517 30.0844 14.693 30.4969C14.9316 30.9107 15.4001 31.1176 16.0895 31.1176C16.771 31.1073 17.4388 30.9269 18.031 30.5931C18.7255 30.207 19.3418 29.6972 19.8488 29.0895C20.4291 28.4095 20.8865 27.6357 21.2011 26.8021L21.5134 27.041C21.1558 27.9726 20.6429 28.8383 19.9961 29.6023C19.402 30.3153 18.6836 30.9173 17.8748 31.3798C17.1646 31.7871 16.3595 32.005 15.5385 32.0121Z" fill="#EDC454"/>
<path d="M22.4085 31.4382C21.7152 31.4382 21.2241 31.2283 20.9354 30.8087C20.6343 30.3521 20.4821 29.8151 20.4994 29.2702C20.5043 28.7523 20.5856 28.2379 20.741 27.7433C20.8981 27.229 21.1125 26.7335 21.3803 26.266C21.6107 25.8466 21.9093 25.4676 22.2641 25.1441C22.5318 24.8838 22.8878 24.7312 23.2629 24.7158C23.3485 24.7163 23.4337 24.7281 23.5162 24.7507C23.6046 24.777 23.6901 24.8032 23.7696 24.8352C23.5637 25.0436 23.389 25.2801 23.2511 25.5375C23.0349 25.9123 22.8459 26.3018 22.6854 26.7031C22.5122 27.1275 22.3636 27.5614 22.2406 28.0027C22.1308 28.3592 22.0694 28.7286 22.0579 29.1012C22.0281 29.4624 22.1125 29.8239 22.2995 30.1356C22.3688 30.2368 22.4624 30.3192 22.572 30.3757C22.6815 30.4322 22.8035 30.4608 22.927 30.4591C23.3765 30.413 23.799 30.225 24.132 29.9229C24.642 29.5198 25.1028 29.0592 25.5049 28.5505C25.0368 28.1599 24.676 27.6588 24.4561 27.0935C24.212 26.5156 24.0859 25.8957 24.0849 25.2694C24.0808 24.764 24.1748 24.2625 24.3618 23.7921C24.5257 23.3581 24.8045 22.9756 25.169 22.6848C25.5319 22.4026 25.9833 22.2552 26.4447 22.2681C27.1047 22.2681 27.5466 22.4429 27.7705 22.7926C28.0165 23.1899 28.1395 23.6498 28.1241 24.1155C28.1044 24.8248 27.9484 25.524 27.6644 26.1756C27.3556 26.9401 26.9686 27.6714 26.5095 28.3581C26.7891 28.5144 27.1047 28.5967 27.4258 28.5971C27.7208 28.5899 28.013 28.5378 28.292 28.4427C28.6405 28.3235 28.9633 28.1406 29.2436 27.9036C29.5758 27.6275 29.8365 27.2768 30.0037 26.8808L30.2983 27.1168C30.0452 27.7866 29.5638 28.3482 28.9372 28.7049C28.4255 28.9935 27.8497 29.1527 27.2608 29.1682C27.063 29.1677 26.8656 29.1482 26.6716 29.1099C26.4806 29.0709 26.2947 29.0103 26.1177 28.9293C25.6082 29.6075 25.0029 30.21 24.3205 30.7184C23.7803 31.1594 23.1084 31.4123 22.4085 31.4382ZM25.9439 27.9415C26.3417 27.3617 26.6774 26.7426 26.9456 26.094C27.1963 25.5172 27.3314 24.8977 27.3433 24.2699C27.3689 23.9197 27.2976 23.5691 27.1371 23.2559C27.0892 23.1605 27.0159 23.08 26.925 23.023C26.8341 22.966 26.7291 22.9347 26.6215 22.9325C26.2974 22.9325 25.9704 23.1656 25.6316 23.626C25.2784 24.1403 25.1008 24.753 25.1249 25.3743C25.1259 25.8469 25.1954 26.3169 25.3311 26.7701C25.4518 27.1974 25.6627 27.5946 25.9498 27.9356L25.9439 27.9415Z" fill="#EDC454"/>
<path d="M31.543 31.4003C30.8497 31.4003 30.3586 31.1662 30.0699 30.698C29.7577 30.1685 29.6034 29.5623 29.625 28.9497C29.6492 28.0296 29.7948 27.1166 30.0581 26.2339C30.3742 25.1073 30.7569 24.0001 31.2042 22.9179C31.6775 21.7523 32.1961 20.6198 32.7598 19.5203C33.3235 18.4208 33.8852 17.4155 34.445 16.5044C34.9039 15.7416 35.4241 15.0167 36.0005 14.3364C36.4749 13.7944 36.849 13.5264 37.123 13.5264C37.2155 13.53 37.3052 13.5592 37.3817 13.6108C37.4583 13.6623 37.5187 13.734 37.5561 13.8178C37.6778 14.0423 37.7671 14.2826 37.8213 14.5317C37.8819 14.7779 37.9145 15.0301 37.9185 15.2835C37.892 15.8566 37.7818 16.4228 37.5915 16.9648C37.3357 17.7543 37.0297 18.5271 36.6752 19.2784C36.2614 20.1625 35.795 21.0217 35.2787 21.8514C34.74 22.7158 34.1497 23.5478 33.511 24.3428C32.9166 25.0925 32.2419 25.7763 31.4988 26.3825C31.4016 26.8109 31.3279 27.2276 31.269 27.6326C31.2147 28.0188 31.1871 28.4082 31.1865 28.7982C31.1563 29.2742 31.2474 29.7502 31.4517 30.1823C31.5279 30.3239 31.643 30.4413 31.7837 30.5212C31.9244 30.6011 32.085 30.6402 32.2471 30.6339C32.7364 30.6085 33.1976 30.4002 33.5375 30.0511C34 29.6234 34.405 29.1386 34.7425 28.6088C35.1157 28.0352 35.4418 27.433 35.7177 26.808L36.0801 27.0003C35.5544 28.1705 34.8466 29.252 33.9824 30.2056C33.2184 31.002 32.4052 31.4003 31.543 31.4003ZM31.7109 25.5725C32.307 24.9758 32.8547 24.3338 33.349 23.6522C33.8783 22.9266 34.37 22.1748 34.8221 21.3997C35.2817 20.6217 35.6882 19.8641 36.0418 19.1356C36.3545 18.4969 36.628 17.8401 36.8608 17.1688C37.0248 16.7356 37.124 16.2811 37.1554 15.8196C37.1677 15.7128 37.1461 15.6049 37.0936 15.5107C37.0553 15.4641 37.0199 15.4379 36.9875 15.4379C36.8579 15.4379 36.6369 15.6419 36.3246 16.0469C35.9294 16.5712 35.5625 17.1159 35.2257 17.6787C34.8093 18.3625 34.3841 19.1395 33.95 20.0098C33.5159 20.8801 33.1015 21.7941 32.7067 22.7518C32.327 23.6748 31.9946 24.6162 31.7109 25.5725Z" fill="#EDC454"/>
<path d="M36.9615 31.2953C36.6987 31.3147 36.435 31.2719 36.1922 31.1706C35.9493 31.0693 35.7344 30.9123 35.565 30.7126C35.2528 30.3051 35.0907 29.8045 35.1054 29.2935C35.121 28.8259 35.1902 28.3615 35.3116 27.9094C35.4601 27.3173 35.6411 26.7337 35.8537 26.161C36.0702 25.5662 36.3322 24.9885 36.6374 24.4331C36.8929 23.9517 37.213 23.5067 37.589 23.1102C37.7111 22.9637 37.8615 22.8428 38.0315 22.7547C38.2016 22.6667 38.3877 22.6131 38.5789 22.5973C38.7148 22.5943 38.847 22.641 38.9502 22.7285C39.0051 22.7778 39.048 22.8388 39.0756 22.907C39.1031 22.9752 39.1146 23.0486 39.1092 23.1218C39.0551 23.4551 38.9274 23.7725 38.7351 24.0514C38.4847 24.4797 38.193 24.9722 37.8512 25.5287C37.5107 26.0877 37.2151 26.6722 36.9674 27.2771C36.7299 27.8305 36.6028 28.4242 36.5932 29.0254C36.5932 29.6082 36.6904 29.9783 36.8878 30.1706C37.0086 30.2742 37.1488 30.3533 37.3005 30.4032C37.4521 30.4532 37.6122 30.4732 37.7717 30.462C38.3177 30.462 38.9001 30.1919 39.5188 29.6519C40.1375 29.1119 40.7925 28.1658 41.4839 26.8138L41.6989 27.0527C41.3334 28.2647 40.6372 29.3536 39.6867 30.1997C38.9416 30.878 37.9738 31.2672 36.9615 31.2953ZM39.8546 20.3769C39.6122 20.3804 39.3738 20.3146 39.1682 20.1875C39.0722 20.124 38.9945 20.0369 38.9429 19.9347C38.8912 19.8325 38.8673 19.7188 38.8736 19.6047C38.8854 19.4207 38.9461 19.2429 39.0495 19.0894C39.153 18.936 39.2955 18.8122 39.4628 18.7306C39.8116 18.4981 40.2207 18.3696 40.6413 18.3605C40.8513 18.3494 41.059 18.4089 41.2305 18.5295C41.3104 18.6029 41.3715 18.694 41.4089 18.7953C41.4463 18.8966 41.4589 19.0053 41.4455 19.1123C41.434 19.2852 41.3835 19.4534 41.2979 19.6047C41.2123 19.7559 41.0936 19.8863 40.9506 19.9865C40.6476 20.2458 40.2582 20.3849 39.8576 20.3769H39.8546Z" fill="#EDC454"/>
<path d="M43.2835 32.4172C42.4468 32.4172 41.8242 32.1472 41.4157 31.6072C40.9747 30.9614 40.7586 30.1912 40.7999 29.413C40.8226 28.462 40.9601 27.517 41.2094 26.5982C41.5064 25.4471 41.8693 24.3137 42.2966 23.2035C42.7444 22.0165 43.2462 20.8597 43.8021 19.733C44.3579 18.6063 44.9167 17.5855 45.4784 16.6705C45.9396 15.8924 46.4721 15.1579 47.0694 14.4763C47.5682 13.9285 47.9778 13.6546 48.2979 13.6546C48.5719 13.6546 48.7663 13.8207 48.8871 14.1558C49.0061 14.476 49.0679 14.8142 49.0698 15.1553C49.0492 15.7073 48.95 16.2537 48.7752 16.7783C48.5553 17.4783 48.2804 18.1603 47.9532 18.818C47.5915 19.555 47.1811 20.2675 46.7247 20.951C46.275 21.6295 45.7716 22.2716 45.2192 22.8713C44.7378 23.4041 44.1811 23.8654 43.5664 24.2408C43.4019 24.5936 43.2612 24.9567 43.1451 25.3277C42.9409 25.9454 42.7717 26.5738 42.6383 27.2101C42.4894 27.8879 42.4134 28.5795 42.4115 29.2731C42.3901 29.8241 42.4907 30.3731 42.7061 30.8816C42.7898 31.079 42.9334 31.2458 43.1171 31.359C43.3007 31.4723 43.5153 31.5264 43.7313 31.5139C44.2625 31.4894 44.7708 31.2928 45.1779 30.9545C45.6841 30.5694 46.0959 30.0763 46.3829 29.5121C45.8057 29.2275 45.3397 28.7625 45.0571 28.1892C44.7763 27.6478 44.627 27.0492 44.6211 26.4408C44.5872 25.7763 44.8022 25.1226 45.2251 24.6051C45.3944 24.3915 45.6103 24.2184 45.8567 24.0989C46.1031 23.9793 46.3736 23.9163 46.6481 23.9145C46.8653 23.9087 47.0805 23.9568 47.274 24.0546C47.4676 24.1523 47.6332 24.2965 47.7558 24.4739C48.061 24.9634 48.2042 25.5349 48.1653 26.1086C48.1636 26.6426 48.0994 27.1745 47.9738 27.6938C47.8426 28.2437 47.6448 28.776 47.3846 29.279C47.4641 29.2935 47.5496 29.3052 47.638 29.3139C47.9918 29.3474 48.3489 29.3086 48.687 29.1998C49.025 29.091 49.3368 28.9146 49.6031 28.6816C50.1296 28.2166 50.5703 27.6644 50.9053 27.0498C51.2736 26.3944 51.5917 25.7126 51.8569 25.0101C52.122 24.3049 52.3489 23.6784 52.5433 23.1394C52.4793 23.0614 52.4231 22.9775 52.3754 22.8888C52.3197 22.7735 52.2944 22.6462 52.3017 22.5187C52.2971 22.1181 52.4383 21.7293 52.6995 21.4231C52.9646 21.1055 53.1856 20.9452 53.3624 20.9452C53.492 20.9452 53.5715 21.0268 53.6039 21.1841C53.6276 21.2858 53.6434 21.389 53.6511 21.493C53.6437 21.6638 53.5985 21.831 53.5185 21.9825C53.4407 22.1266 53.3955 22.2857 53.3859 22.4488C53.3993 22.5631 53.4402 22.6725 53.5054 22.7679C53.5705 22.8632 53.6579 22.9417 53.7601 22.9966L54.6174 23.6027C54.9457 23.8435 55.234 24.1335 55.4718 24.4623C55.7321 24.8368 55.8633 25.2844 55.846 25.7386C55.8436 26.2337 55.7435 26.7237 55.5514 27.181C55.3481 27.6647 55.1478 28.1309 54.9621 28.5738C54.7819 28.9467 54.6816 29.3525 54.6675 29.7656C54.6541 29.8679 54.6667 29.9718 54.7042 30.068C54.7418 30.1642 54.8031 30.2496 54.8826 30.3163C55.0337 30.4121 55.2099 30.4618 55.3893 30.4591C55.8073 30.4452 56.2141 30.3215 56.5678 30.1007C56.9947 29.8447 57.3902 29.5406 57.7463 29.1945C58.1242 28.8353 58.4711 28.4454 58.7833 28.0289C59.0554 27.6816 59.2821 27.3017 59.458 26.8983L59.7732 27.1343C59.4435 27.8413 59.0215 28.5026 58.5182 29.1012C58.0178 29.7199 57.4211 30.256 56.7505 30.6893C56.1544 31.0837 55.4553 31.2983 54.7382 31.307C54.2702 31.3349 53.809 31.1859 53.4478 30.8904C53.2864 30.7431 53.1602 30.562 53.0787 30.3604C52.9971 30.1587 52.9622 29.9415 52.9764 29.7248C52.9874 29.2213 53.1027 28.7255 53.3152 28.2678C53.5391 27.7531 53.7601 27.2324 53.9781 26.706C54.178 26.2541 54.288 25.7683 54.3022 25.2753C54.318 25.0694 54.2862 24.8627 54.2091 24.6708C54.132 24.4789 54.0117 24.3069 53.8573 24.168C53.5676 23.9268 53.2657 23.7002 52.9529 23.489C52.7564 24.0912 52.5276 24.7585 52.2664 25.4909C52.0045 26.216 51.673 26.9146 51.2765 27.5773C50.9092 28.2068 50.4231 28.7607 49.8446 29.209C49.2627 29.6454 48.5477 29.8726 47.8177 29.853C47.7053 29.8525 47.5931 29.8447 47.4818 29.8297L47.1194 29.7831C46.7015 30.4957 46.1589 31.1291 45.5167 31.6538C44.888 32.1633 44.0961 32.434 43.2835 32.4172ZM43.8374 23.3084C44.3293 22.9187 44.7706 22.4704 45.1514 21.9738C45.586 21.4236 45.9845 20.8464 46.3446 20.2459C46.7158 19.6339 47.0428 19.0337 47.3345 18.4451C47.5939 17.9277 47.8192 17.3943 48.0092 16.8482C48.1412 16.5041 48.2225 16.143 48.2508 15.7759C48.2563 15.723 48.2472 15.6696 48.2242 15.6215C48.2174 15.6091 48.2071 15.5989 48.1946 15.5922C48.182 15.5854 48.1678 15.5825 48.1535 15.5836C48.0239 15.5836 47.7794 15.8109 47.417 16.2655C46.9738 16.8405 46.5712 17.4451 46.212 18.075C45.7701 18.8326 45.3321 19.6679 44.898 20.581C44.4767 21.4628 44.1221 22.3745 43.8374 23.3084ZM46.6333 29.0313C46.8133 28.6591 46.9507 28.2681 47.0428 27.8657C47.1411 27.4561 47.1905 27.0366 47.1902 26.6157C47.2105 26.1673 47.1321 25.7199 46.9603 25.3044C46.8071 24.9868 46.6186 24.8265 46.3947 24.8265C46.1708 24.8265 45.938 24.9897 45.7554 25.3161C45.5578 25.6946 45.4624 26.1171 45.4784 26.5428C45.4852 27.0074 45.5749 27.4671 45.7436 27.9007C45.9047 28.365 46.2178 28.7628 46.6333 29.0313Z" fill="#EDC454"/>
<path d="M60.6588 31.2954C60.3959 31.3152 60.132 31.2727 59.8891 31.1713C59.6462 31.0699 59.4313 30.9127 59.2623 30.7126C58.9501 30.3052 58.788 29.8045 58.8027 29.2935C58.8167 28.8258 58.886 28.3613 59.0089 27.9094C59.156 27.3169 59.337 26.7332 59.551 26.1611C59.7674 25.5662 60.0294 24.9886 60.3347 24.4331C60.5891 23.9511 60.9093 23.506 61.2863 23.1102C61.4077 22.9637 61.5576 22.8427 61.7271 22.7546C61.8967 22.6665 62.0824 22.6131 62.2733 22.5974C62.41 22.5944 62.5431 22.641 62.6474 22.7285C62.702 22.778 62.7445 22.8391 62.7715 22.9073C62.7986 22.9755 62.8095 23.0489 62.8036 23.1219C62.7509 23.4551 62.6241 23.7725 62.4324 24.0514C62.181 24.4807 61.8863 24.9732 61.5485 25.5287C61.208 26.0877 60.9125 26.6723 60.6647 27.2771C60.4285 27.831 60.3014 28.4244 60.2905 29.0254C60.2905 29.5966 60.3887 29.9783 60.5851 30.1706C60.7058 30.2743 60.846 30.3535 60.9976 30.4035C61.1493 30.4535 61.3095 30.4734 61.469 30.462C62.0169 30.462 62.5973 30.191 63.219 29.6519C63.8406 29.1129 64.4917 28.1658 65.1811 26.8138L65.3991 27.0527C65.0336 28.2647 64.3374 29.3536 63.3869 30.1997C62.6408 30.8783 61.6719 31.2674 60.6588 31.2954ZM63.5519 20.377C63.3094 20.3804 63.0711 20.3147 62.8654 20.1875C62.7694 20.124 62.6918 20.0369 62.6402 19.9347C62.5885 19.8325 62.5646 19.7188 62.5708 19.6048C62.5821 19.4205 62.6425 19.2425 62.7461 19.089C62.8496 18.9354 62.9924 18.8117 63.1601 18.7306C63.5089 18.4981 63.918 18.3696 64.3385 18.3605C64.5487 18.3482 64.7568 18.4079 64.9277 18.5295C65.008 18.6028 65.0696 18.6938 65.1074 18.7951C65.1453 18.8964 65.1585 19.0051 65.1458 19.1123C65.1342 19.2853 65.0837 19.4535 64.9981 19.6047C64.9125 19.7559 64.7938 19.8863 64.6508 19.9865C64.346 20.2467 63.9544 20.3858 63.5519 20.377Z" fill="#EDC454"/>
</g>
<defs>
<clipPath id="clip0_830_307">
<rect width="66" height="33" fill="white"/>
</clipPath>
</defs>
</svg>
