<svg width="18" height="18" viewBox="0 0 18 18" fill="none" xmlns="http://www.w3.org/2000/svg">
<path d="M7.39961 0.200012C3.64805 0.200012 0.599609 3.24845 0.599609 7.00001C0.599609 10.7516 3.64805 13.8 7.39961 13.8C8.88398 13.8 10.2559 13.3219 11.3746 12.5125L16.6371 17.7625L17.7621 16.6375L12.5621 11.425C13.584 10.2344 14.1996 8.68907 14.1996 7.00001C14.1996 3.24845 11.1512 0.200012 7.39961 0.200012ZM7.39961 1.00001C10.7184 1.00001 13.3996 3.68126 13.3996 7.00001C13.3996 10.3188 10.7184 13 7.39961 13C4.08086 13 1.39961 10.3188 1.39961 7.00001C1.39961 3.68126 4.08086 1.00001 7.39961 1.00001Z" fill="#6D6D6D"/>
</svg>
